<svg xmlns="http://www.w3.org/2000/svg" version="1.1" xmlns:xlink="http://www.w3.org/1999/xlink" xmlns:svgjs="http://svgjs.dev/svgjs" width="2000" height="323" viewBox="0 0 2000 323"><g transform="matrix(1,0,0,1,-1.2121212121212466,0.6653031888081387)"><svg viewBox="0 0 396 64" data-background-color="#ffffff" preserveAspectRatio="xMidYMid meet" height="323" width="2000" xmlns="http://www.w3.org/2000/svg" xmlns:xlink="http://www.w3.org/1999/xlink"><g id="tight-bounds" transform="matrix(1,0,0,1,0.2400000000000091,-0.13182478044495838)"><svg viewBox="0 0 395.52 64.2636495608899" height="64.2636495608899" width="395.52"><g><svg viewBox="0 0 529.1826580212298 85.98100952866241" height="64.2636495608899" width="395.52"><g><rect width="7.715279772832449" height="85.98100952866241" x="105.75031078024969" y="0" fill="#61777f" opacity="1" stroke-width="0" stroke="transparent" fill-opacity="1" class="rect-qz-0" data-fill-palette-color="primary" rx="1%" id="qz-0" data-palette-color="#61777f"></rect></g><g transform="matrix(1,0,0,1,133.6626580212299,0.2138831082802497)"><svg viewBox="0 0 395.52 85.55324331210191" height="85.55324331210191" width="395.52"><g id="textblocktransform"><svg viewBox="0 0 395.52 85.55324331210191" height="85.55324331210191" width="395.52" id="textblock"><g><svg viewBox="0 0 395.52 85.55324331210191" height="85.55324331210191" width="395.52"><g transform="matrix(1,0,0,1,0,0)"><svg width="395.52" viewBox="2.25 -36.5 196.24 42.45" height="85.55324331210191" data-palette-color="#61777f"><path d="M15.1-4.5L14.6-4.5 14.6-31.5 15.1-31.5 15.1-18.25 34.3-18.25 34.3-31.5 34.8-31.5 34.8-4.5 34.3-4.5 34.3-17.75 15.1-17.75 15.1-4.5ZM11 0L18.75 0Q19.7 0 20.13-0.43 20.55-0.85 20.55-1.8L20.55-1.8 20.55-12.9 28.9-12.9 28.9-1.8Q28.9-0.85 29.33-0.43 29.75 0 30.7 0L30.7 0 38.45 0Q39.4 0 39.83-0.43 40.25-0.85 40.25-1.8L40.25-1.8 40.25-34.2Q40.25-35.15 39.83-35.58 39.4-36 38.45-36L38.45-36 30.7-36Q29.75-36 29.33-35.58 28.9-35.15 28.9-34.2L28.9-34.2 28.9-23.35 20.55-23.35 20.55-34.2Q20.55-35.15 20.13-35.58 19.7-36 18.75-36L18.75-36 11-36Q10.05-36 9.63-35.58 9.2-35.15 9.2-34.2L9.2-34.2 9.2-1.8Q9.2-0.85 9.63-0.43 10.05 0 11 0L11 0ZM20.35 0.05L20.35 0.05 13.85 5.45Q13.65 5.65 13.23 5.8 12.8 5.95 12.3 5.95L12.3 5.95 4.55 5.95Q3.35 5.95 2.8 5.4 2.25 4.85 2.25 3.65L2.25 3.65 2.25-28.75Q2.25-29.4 2.43-29.85 2.6-30.3 2.95-30.6L2.95-30.6 9.4-36.05Q9.65-36.25 10.08-36.38 10.5-36.5 11-36.5L11-36.5 18.75-36.5Q19.95-36.5 20.5-35.95 21.05-35.4 21.05-34.2L21.05-34.2 21.05-23.85 21.95-23.85 21.95-28.75Q21.95-29.4 22.13-29.85 22.3-30.3 22.65-30.6L22.65-30.6 29.1-36.05Q29.35-36.25 29.78-36.38 30.2-36.5 30.7-36.5L30.7-36.5 38.45-36.5Q39.65-36.5 40.2-35.95 40.75-35.4 40.75-34.2L40.75-34.2 40.75-1.8Q40.75-1.15 40.58-0.7 40.4-0.25 40.05 0.05L40.05 0.05 33.55 5.45Q33.35 5.65 32.93 5.8 32.5 5.95 32 5.95L32 5.95 24.25 5.95Q23.05 5.95 22.5 5.4 21.95 4.85 21.95 3.65L21.95 3.65 21.95-6.95 21.05-6.95 21.05-1.8Q21.05-1.15 20.88-0.7 20.7-0.25 20.35 0.05ZM57.2-15.15L57.2-15.15 57.2-13.6 76.7-13.6 76.7-15.15Q76.7-16.5 76.47-17.65 76.25-18.8 75.9-19.8L75.9-19.8 72.45-27.95Q71.9-29.25 71.3-30.13 70.7-31 69.3-31L69.3-31 64.4-31Q62.9-31 62.3-30.13 61.7-29.25 61.2-28L61.2-28 58-19.8Q57.65-18.8 57.42-17.65 57.2-16.5 57.2-15.15ZM62.85-17.9L65.2-25.5Q65.4-25.95 65.62-26.15 65.85-26.35 66.15-26.35L66.15-26.35 67.4-26.35Q67.7-26.35 67.92-26.15 68.15-25.95 68.35-25.5L68.35-25.5 70.7-17.9 62.85-17.9ZM77.2-4.5L76.7-4.5 76.7-13.1 57.2-13.1 57.2-4.5 56.7-4.5 56.7-15.15Q56.7-16.55 56.92-17.73 57.15-18.9 57.55-20L57.55-20 60.75-28.2Q61.3-29.6 62-30.55 62.7-31.5 64.4-31.5L64.4-31.5 69.3-31.5Q70.95-31.5 71.62-30.55 72.3-29.6 72.9-28.15L72.9-28.15 76.35-20Q76.75-18.9 76.97-17.73 77.2-16.55 77.2-15.15L77.2-15.15 77.2-4.5ZM62.35-1.8L62.35-1.8 62.35-8.8 71.2-8.8 71.2-1.8Q71.2-0.85 71.67-0.43 72.15 0 73.15 0L73.15 0 80.7 0Q81.65 0 82.07-0.43 82.5-0.85 82.5-1.8L82.5-1.8 82.5-15Q82.5-16.5 82.02-18.45 81.55-20.4 80.55-23L80.55-23 76.2-34.35Q75.9-35.2 75.27-35.6 74.65-36 73.7-36L73.7-36 60.25-36Q59.25-36 58.62-35.6 58-35.2 57.7-34.35L57.7-34.35 53.35-23Q52.35-20.4 51.87-18.45 51.4-16.5 51.4-15L51.4-15 51.4-1.8Q51.4-0.85 51.82-0.43 52.25 0 53.2 0L53.2 0 60.55 0Q61.5 0 61.92-0.43 62.35-0.85 62.35-1.8ZM62.15 0.05L55.65 5.45Q55.45 5.65 55.02 5.8 54.6 5.95 54.1 5.95L54.1 5.95 46.75 5.95Q45.55 5.95 45 5.4 44.45 4.85 44.45 3.65L44.45 3.65 44.45-9.55Q44.45-11.1 44.92-13.08 45.4-15.05 46.45-17.75L46.45-17.75 50.75-29.05Q50.9-29.5 51.12-29.83 51.35-30.15 51.6-30.4L51.6-30.4 51.65-30.45 58.05-35.8Q58.45-36.15 59-36.33 59.55-36.5 60.25-36.5L60.25-36.5 73.7-36.5Q74.85-36.5 75.57-36.02 76.3-35.55 76.65-34.55L76.65-34.55 81-23.2Q82.05-20.5 82.52-18.53 83-16.55 83-15L83-15 83-1.8Q83-1.15 82.82-0.7 82.65-0.25 82.3 0.05L82.3 0.05 75.8 5.45Q75.6 5.65 75.17 5.8 74.75 5.95 74.25 5.95L74.25 5.95 66.7 5.95Q65.45 5.95 64.85 5.38 64.25 4.8 64.25 3.65L64.25 3.65 64.25-2.85 62.85-2.85 62.85-1.8Q62.85-1.15 62.67-0.7 62.5-0.25 62.15 0.05L62.15 0.05ZM121.95-2.1L115.45 3.3Q113.9 4.6 111.5 5.28 109.1 5.95 105.85 5.95L105.85 5.95 89 5.95Q87.8 5.95 87.25 5.4 86.7 4.85 86.7 3.65L86.7 3.65 86.7-28.75Q86.7-29.4 86.87-29.85 87.05-30.3 87.4-30.6L87.4-30.6 93.85-36.05Q94.1-36.25 94.52-36.38 94.95-36.5 95.45-36.5L95.45-36.5 112.3-36.5Q118.84-36.5 121.97-33.85 125.1-31.2 125.1-25.8L125.1-25.8 125.1-10.2Q125.1-7.5 124.3-5.48 123.5-3.45 121.95-2.1L121.95-2.1ZM95.45 0L112.3 0Q118.55 0 121.57-2.5 124.6-5 124.6-10.2L124.6-10.2 124.6-25.8Q124.6-31 121.57-33.5 118.55-36 112.3-36L112.3-36 95.45-36Q94.5-36 94.07-35.58 93.65-35.15 93.65-34.2L93.65-34.2 93.65-1.8Q93.65-0.85 94.07-0.43 94.5 0 95.45 0L95.45 0ZM111.2-4.5L99.1-4.5 99.1-31.5 111.2-31.5Q113.75-31.5 115.32-30.95 116.9-30.4 117.75-29.48 118.59-28.55 118.9-27.28 119.2-26 119.2-24.55L119.2-24.55 119.2-11.3Q119.2-9.85 118.92-8.6 118.65-7.35 117.8-6.45 116.95-5.55 115.35-5.03 113.75-4.5 111.2-4.5L111.2-4.5ZM111.2-31L111.2-31 99.6-31 99.6-5 111.2-5Q113.6-5 115.07-5.48 116.55-5.95 117.34-6.78 118.15-7.6 118.42-8.78 118.7-9.95 118.7-11.3L118.7-11.3 118.7-24.55Q118.7-25.9 118.4-27.1 118.09-28.3 117.3-29.15 116.5-30 115.02-30.5 113.55-31 111.2-31ZM105-9.45L105-26.45 110.95-26.45Q112.15-26.45 112.72-25.88 113.3-25.3 113.3-24.05L113.3-24.05 113.3-11.9Q113.3-10.65 112.72-10.05 112.15-9.45 110.95-9.45L110.95-9.45 105-9.45ZM106.35-9.95L106.35-18.6Q106.35-19.25 106.15-19.7 105.95-20.15 105.5-20.35L105.5-20.35 105.5-9.95 106.35-9.95ZM151.79 5.95L151.79 5.95 130.49 5.95Q129.29 5.95 128.74 5.4 128.19 4.85 128.19 3.65L128.19 3.65 128.19-2.3Q128.19-2.95 128.37-3.4 128.54-3.85 128.89-4.15L128.89-4.15 134.94-9.25 134.94-20.4 130.49-20.4Q129.29-20.4 128.74-20.95 128.19-21.5 128.19-22.7L128.19-22.7 128.19-28.75Q128.19-29.4 128.37-29.85 128.54-30.3 128.89-30.6L128.89-30.6 135.34-36.05Q135.59-36.25 136.02-36.38 136.44-36.5 136.94-36.5L136.94-36.5 158.24-36.5Q159.44-36.5 159.99-35.95 160.54-35.4 160.54-34.2L160.54-34.2 160.54-28.15Q160.54-27.5 160.37-27.05 160.19-26.6 159.84-26.3L159.84-26.3 153.89-21.3 153.89-10.05 158.24-10.05Q159.44-10.05 159.99-9.5 160.54-8.95 160.54-7.75L160.54-7.75 160.54-1.8Q160.54-1.15 160.37-0.7 160.19-0.25 159.84 0.05L159.84 0.05 153.34 5.45Q153.14 5.65 152.72 5.8 152.29 5.95 151.79 5.95ZM136.94 0L136.94 0 158.24 0Q159.19 0 159.62-0.43 160.04-0.85 160.04-1.8L160.04-1.8 160.04-7.75Q160.04-8.7 159.62-9.13 159.19-9.55 158.24-9.55L158.24-9.55 153.39-9.55 153.39-26.35 158.24-26.35Q159.19-26.35 159.62-26.78 160.04-27.2 160.04-28.15L160.04-28.15 160.04-34.2Q160.04-35.15 159.62-35.58 159.19-36 158.24-36L158.24-36 136.94-36Q135.99-36 135.57-35.58 135.14-35.15 135.14-34.2L135.14-34.2 135.14-28.15Q135.14-27.2 135.57-26.78 135.99-26.35 136.94-26.35L136.94-26.35 141.89-26.35 141.89-9.55 136.94-9.55Q135.99-9.55 135.57-9.13 135.14-8.7 135.14-7.75L135.14-7.75 135.14-1.8Q135.14-0.85 135.57-0.43 135.99 0 136.94 0ZM155.54-5L155.54-4.5 139.64-4.5 139.64-5 147.39-5 147.39-31 139.64-31 139.64-31.5 155.54-31.5 155.54-31 147.89-31 147.89-5 155.54-5ZM189.74 5.95L189.74 5.95 166.54 5.95Q165.34 5.95 164.79 5.4 164.24 4.85 164.24 3.65L164.24 3.65 164.24-28.75Q164.24-29.4 164.42-29.85 164.59-30.3 164.94-30.6L164.94-30.6 171.39-36.05Q171.64-36.25 172.06-36.38 172.49-36.5 172.99-36.5L172.99-36.5 196.19-36.5Q197.39-36.5 197.94-35.95 198.49-35.4 198.49-34.2L198.49-34.2 198.49-28.35Q198.49-27.7 198.31-27.25 198.14-26.8 197.79-26.5L197.79-26.5 193.49-22.95Q193.99-22.7 194.22-22.2 194.44-21.7 194.44-20.9L194.44-20.9 194.44-15.55Q194.44-14.9 194.27-14.45 194.09-14 193.74-13.7L193.74-13.7 189.29-9.95 196.19-9.95Q197.39-9.95 197.94-9.4 198.49-8.85 198.49-7.65L198.49-7.65 198.49-1.8Q198.49-1.15 198.31-0.7 198.14-0.25 197.79 0.05L197.79 0.05 191.29 5.45Q191.09 5.65 190.67 5.8 190.24 5.95 189.74 5.95ZM172.99 0L196.19 0Q197.14 0 197.56-0.43 197.99-0.85 197.99-1.8L197.99-1.8 197.99-7.65Q197.99-8.6 197.56-9.03 197.14-9.45 196.19-9.45L196.19-9.45 182.39-9.45 182.39-13.75 192.14-13.75Q193.09-13.75 193.52-14.18 193.94-14.6 193.94-15.55L193.94-15.55 193.94-20.9Q193.94-21.85 193.52-22.28 193.09-22.7 192.14-22.7L192.14-22.7 182.39-22.7 182.39-26.55 196.19-26.55Q197.14-26.55 197.56-26.98 197.99-27.4 197.99-28.35L197.99-28.35 197.99-34.2Q197.99-35.15 197.56-35.58 197.14-36 196.19-36L196.19-36 172.99-36Q172.04-36 171.62-35.58 171.19-35.15 171.19-34.2L171.19-34.2 171.19-1.8Q171.19-0.85 171.62-0.43 172.04 0 172.99 0L172.99 0ZM177.14-5L193.49-5 193.49-4.5 176.64-4.5 176.64-31.5 193.49-31.5 193.49-31 177.14-31 177.14-18.45 189.44-18.45 189.44-17.95 177.14-17.95 177.14-5Z" opacity="1" transform="matrix(1,0,0,1,0,0)" fill="#61777f" class="wordmark-text-0" data-fill-palette-color="primary" id="text-0"></path></svg></g></svg></g></svg></g></svg></g><g transform="matrix(1,0,0,1,0,0.2138831082802497)"><svg viewBox="0 0 85.55324331210191 85.55324331210191" height="85.55324331210191" width="85.55324331210191"><g><svg xmlns="http://www.w3.org/2000/svg" xmlns:xlink="http://www.w3.org/1999/xlink" version="1.1" x="0" y="0" viewBox="1 1 126 126" style="enable-background:new 0 0 128 128;" xml:space="preserve" height="85.55324331210191" width="85.55324331210191" class="icon-icon-0" data-fill-palette-color="accent" id="icon-0"><g fill="#61777f" data-fill-palette-color="accent"><path d="M110.937 52.703c-7.691-4.44-16.653-5.62-25.231-3.321-8.267 2.215-15.218 7.411-19.687 14.668 9.403 17.409 3.288 39.323-13.954 49.278-5.771 3.331-12.084 4.915-18.313 4.915-0.632 0-1.264-0.028-1.894-0.062C41.271 123.777 52.257 127 64 127c31.814 0 58.104-23.586 62.378-54.223C124.154 64.602 118.837 57.265 110.937 52.703z" fill="#61777f" data-fill-palette-color="accent"></path><path d="M64 1c-8.339 0-16.291 1.635-23.575 4.577C34.448 11.591 30.749 19.872 30.749 29c0 18.01 14.396 32.711 32.285 33.226 4.938-8.026 12.624-13.774 21.766-16.224 9.482-2.54 19.386-1.237 27.887 3.671 6.348 3.666 11.181 8.957 14.295 15.043C126.983 64.476 127 64.24 127 64 127 29.206 98.795 1 64 1z" fill="#61777f" data-fill-palette-color="accent"></path><path d="M50.314 110.297c15.598-9.006 21.13-28.825 12.632-44.574C43.168 65.162 27.249 48.91 27.249 29c0-7.337 2.17-14.175 5.891-19.918C13.961 19.882 1 40.421 1 64c0 20.167 9.486 38.105 24.228 49.636C33.414 115.793 42.419 114.854 50.314 110.297z" fill="#61777f" data-fill-palette-color="accent"></path></g></svg></g></svg></g></svg></g><defs></defs></svg><rect width="395.52" height="64.2636495608899" fill="none" stroke="none" visibility="hidden"></rect></g></svg></g></svg>